<svg id="svg" xmlns="http://www.w3.org/2000/svg" viewBox="0 0 400 201.79"><defs><style>.cls-1{fill:#008aff;fill-rule:evenodd;}</style></defs><g id="svgg"><path id="path0" class="cls-1" d="M157,67.24c0,25,0,25.79.32,26.39a5.39,5.39,0,0,0,2.51,2.2c.69.4,1.73,1,2.3,1.36a12.63,12.63,0,0,0,1.13.64s.64.34,1.33.75a9.26,9.26,0,0,0,1.42.75.17.17,0,0,1,.16.17.17.17,0,0,0,.16.17,8.23,8.23,0,0,1,1.39.75,12.44,12.44,0,0,0,1.34.75,10.92,10.92,0,0,1,1.14.66,6.14,6.14,0,0,0,1.24.67.27.27,0,0,1,.25.14,7.47,7.47,0,0,0,2.22,1c.23,0,.26-1.66.26-16.52,0-13.2,0-16.49.21-16.36a9.85,9.85,0,0,0,1.12.67l2.08,1.16,3.67,2c.55.3,1.07.6,1.17.66s.54.33,1,.59l2.14,1.19a10.29,10.29,0,0,0,1.46.72.14.14,0,0,1,.15.13c0,.08.2.22.45.33A13.78,13.78,0,0,1,189,79c.5.29,1.33.76,1.83,1s1,.55,1.09.62,1.29.76,3.08,1.72c.5.27,1.1.62,1.33.78a8.18,8.18,0,0,0,.92.53c.63.31,2.44,1.31,2.67,1.48l1.08.62c.5.27,1.27.69,1.7.94a4.25,4.25,0,0,0,1,.44c.12,0,.17-2.86.17-9.26,0-10.08,0-9.93-1-10.74a11.22,11.22,0,0,0-2.3-1.42l-1.89-1.06c-.67-.38-1.25-.69-1.28-.69s-.46-.24-.94-.52l-1.55-.89c-.58-.32-3.44-1.92-5.5-3.09l-1.75-1c-.6-.32-1.16-.64-1.25-.71s-.62-.37-1.17-.67l-2.92-1.63-2.58-1.45-1.83-1-2-1.13-2.54-1.44c-.93-.54-1.74-1-1.8-1a2.05,2.05,0,0,1-.56-.32,13.35,13.35,0,0,0-1.19-.71l-1.5-.83-6.91-3.9c-.46-.25-1.47-.83-2.24-1.27a12.19,12.19,0,0,0-1.8-.91l-.38-.1V67.24m94.08-25c-.73.4-2,1.11-2.81,1.58s-1.51.86-1.54.86-.55.3-1.15.66a10.61,10.61,0,0,1-1.18.67,8.65,8.65,0,0,0-1.12.61c-.57.33-1.51.86-2.09,1.17s-1.22.68-1.42.8A27.7,27.7,0,0,1,237,50.11c-.16,0-.29.16-.29.24a.15.15,0,0,1-.15.15,14.93,14.93,0,0,0-1.76.92c-.89.5-1.65.91-1.69.91a5.06,5.06,0,0,0-.7.39c-.6.38-1.39.83-3.12,1.78-1.4.77-4.45,2.51-5.44,3.1a8.93,8.93,0,0,1-1,.57,11.18,11.18,0,0,0-1.19.66,12.76,12.76,0,0,1-1.16.67,9.91,9.91,0,0,0-.95.52c-.49.29-1.22.72-1.64.95l-1.33.75-1.46.8c-.48.26-1.16.65-1.5.87s-1.07.64-1.62.94c-3.45,1.9-3.64,2-4.37,2.45-1.55.94-1.54.88-1.55,11.31,0,9.3,0,9.48.59,8.93a9.6,9.6,0,0,1,1.08-.64l3.58-2c.46-.26.91-.52,1-.59s.62-.36,1.17-.66l3.66-2c.65-.37,1.58-.89,2.09-1.16s1-.56,1.08-.63.69-.41,1.33-.76,1.41-.76,1.71-.93l1.17-.66c.34-.19.7-.41.79-.47s.77-.45,1.5-.85l1.67-.9a2.29,2.29,0,0,0,.41-.26,2.74,2.74,0,0,1,.5-.29c.23-.11.79-.42,1.25-.68s1.79-1,3-1.66l2.13-1.18V87.18c0,13.82,0,16.51.23,16.58a5.63,5.63,0,0,0,1.75-.83c.84-.51,1.56-.93,1.6-.93a14.77,14.77,0,0,0,1.29-.72l3.29-1.94,3-1.76,1.67-1c2.81-1.56,3.75-2.26,4-3,.46-1.17.45-52.16,0-52.13a14,14,0,0,0-1.44.72m89.5,78.36c-3.87.41-11.48,2.93-11.89,3.94a.29.29,0,0,1-.27.14,21.11,21.11,0,0,0-2.92,2c-.05,0-.35.27-.67.5a24.89,24.89,0,0,0-3.16,2.84c-1.71,1.71-3.34,3.65-3.34,4a.23.23,0,0,1-.12.21c-1,.47-4.14,7.06-4.95,10.56-.15.64-.37,1.5-.48,1.92-.26,1-.28,9.07,0,9.33s.21-.45.29-2.11a27.79,27.79,0,0,1,.27-3c.08-.38.27-1.28.42-2a26.37,26.37,0,0,1,.93-3.5c.08-.19.37-.94.66-1.67,5.44-14.09,21.2-21.5,34.83-16.38a18,18,0,0,1,11.08,13.71c.06.37.15.86.2,1.09a39.49,39.49,0,0,1,0,5.33c-.06.32-.15.88-.21,1.25a33.08,33.08,0,0,1-2,6.86,8.42,8.42,0,0,0-.4,1,39.73,39.73,0,0,1-2.72,4.51,29.3,29.3,0,0,1-23.67,12.14c-1.74,0-2.15.12-1.4.36a40.57,40.57,0,0,0,8.21,0,29.38,29.38,0,0,0,15.58-6.85,32.4,32.4,0,0,0,7.95-10.25c.41-.87.8-1.7.88-1.84a4.59,4.59,0,0,0,.26-.83,2.61,2.61,0,0,1,.24-.75,21.75,21.75,0,0,0,.91-3.5c1.07-5.22.7-11.55-.9-15.33a26.39,26.39,0,0,0-2.95-5.33c-.17-.19-.63-.73-1-1.22a22.22,22.22,0,0,0-4.44-3.81,24.13,24.13,0,0,0-15.17-3.3m-130.91,1.83a24.47,24.47,0,0,0-4.16,1,19.13,19.13,0,0,0-7.4,4.48,19.86,19.86,0,0,0-2.05,2.5c-2.6,3.76-4,9.54-3.14,13.15.93,4,3.94,6.43,10.25,8.26,3.37,1,4.15,1.23,5.08,1.57,3.38,1.26,4.08,3.47,1.87,5.87-3.28,3.56-9.34,2-8.89-2.29l.1-1H188.22l-.23,1.21c-.68,3.47-.15,7.5,1.3,9.93a13.25,13.25,0,0,0,2.88,3.19.77.77,0,0,1,.36.21c.72.7,3.5,1.79,5.89,2.32a41.47,41.47,0,0,0,9.5-.08c2.63-.54,7.47-2.39,8.08-3.1.05-.05.52-.39,1.05-.75a20.14,20.14,0,0,0,7.5-11.35,16.32,16.32,0,0,0,.62-4.35c0-5-2.47-8-8.42-10.4a49.72,49.72,0,0,0-5.41-1.66.79.79,0,0,1-.43-.14,4.1,4.1,0,0,0-.91-.37c-4.47-1.34-5.13-4.53-1.33-6.43,3-1.53,6.29,0,6.21,2.87l0,1,6.28.07c7.06.09,6.48.19,6.7-1.14,1.35-8.39-1.94-13.08-10.31-14.72a40.58,40.58,0,0,0-7.86.08m-156.48.7c-.12.35-.27.78-.35,1s-.74,2-1.47,3.92-1.88,5.05-2.55,6.83-1.31,3.55-1.44,3.92c-.27.77-2.12,5.74-3.05,8.17-.35.91-1.07,2.83-1.59,4.25s-1.05,2.82-1.18,3.1a3,3,0,0,0-.23.76.64.64,0,0,1-.15.4,3.85,3.85,0,0,0-.4.9c-.25.77-.7,2-1,2.59-.07.18-.56,1.49-1.08,2.91s-1,2.74-1.08,2.92c-.79,1.95-2.34,6.19-2.34,6.4s2,.18,6.47.18h6.46l.4-1.21c.43-1.3,1.28-3.66,1.51-4.2s1.5-4.2,1.5-4.33a3,3,0,0,1,.23-.65c.12-.29.35-.9.51-1.36s.35-1,.43-1.16.33-.9.56-1.59c.57-1.74,1.09-3.19,1.26-3.58.08-.18.27-.71.43-1.17s.34-1,.41-1.16c.17-.44,1.13-3.13,1.45-4.09.14-.41.31-.9.39-1.08s.22-.62.33-1c.28-.91.44-.77.66.59.11.66.26,1.43.34,1.7s.26,1.18.41,2,.34,1.8.42,2.17.24,1.12.35,1.67.25,1.3.32,1.66l.4,2.09c.67,3.46.77,4,.94,4.75.11.46.21,1,.24,1.16.11.65,1.46,7.54,1.68,8.55.08.37.12.38,2,.33l2,0,1.38-2.09c.75-1.14,1.43-2.15,1.51-2.25s.77-1.13,1.54-2.32c1.48-2.26,5.7-8.66,6-9.09.1-.14,1.71-2.58,3.58-5.42S84.88,145,85,144.91a3.74,3.74,0,0,0,.35-.5c.23-.35.19.7-.13,3.51-.19,1.64-.61,5.7-.93,8.91-.13,1.33-.32,3.1-.41,3.92s-.29,2.63-.43,4-.32,3.1-.4,3.83-.16,1.69-.17,2.13v.79h6.33c3.48,0,6.36-.07,6.41-.15s.21-1.56.35-3.29.33-3.78.4-4.56.27-2.8.42-4.5.3-3.2.34-3.33.11-1.15.17-2.25.17-2.38.25-2.84.18-1.53.24-2.38a15.84,15.84,0,0,1,.15-1.67,16.48,16.48,0,0,0,.18-1.95c.07-1,.18-2.28.26-2.83s.19-1.82.25-2.83.17-2.32.26-2.92.27-2.55.41-4.33.33-3.85.42-4.59.2-2,.26-2.79l.1-1.46H96.14l-6.38,0-2.49,0-1,1.5-1.85,2.89-1.06,1.66c-.19.32-1.27,2-2.8,4.35-.56.85-1.36,2.11-1.77,2.78-1.81,2.93-3.25,5.16-3.37,5.21a.32.32,0,0,0-.14.29c0,.13-.07.24-.16.24a.16.16,0,0,0-.17.16,70.85,70.85,0,0,1-4.34,6.67,2.36,2.36,0,0,1-.24-1c-.06-.53-.14-1.07-.17-1.21-.11-.52-.46-2.46-.67-3.75-.27-1.67-.67-4-.91-5.33-.42-2.32-.69-3.9-.84-4.92-.09-.59-.23-1.42-.32-1.83s-.28-1.46-.42-2.33-.34-1.92-.42-2.34-.24-1.33-.35-2l-.2-1.29H53.4l-.21.62m75-.08c-.31.37-2.54,4.18-2.54,4.32a.16.16,0,0,1-.17.14.18.18,0,0,0-.17.18c0,.1-.82,1.53-1.83,3.18s-1.83,3.07-1.83,3.15a.17.17,0,0,1-.17.16.18.18,0,0,0-.17.19,21.46,21.46,0,0,1-1.33,2.35c-.73,1.18-1.33,2.19-1.33,2.23a5.8,5.8,0,0,1-.5.81,4.77,4.77,0,0,0-.5.82c0,.05-.72,1.24-1.59,2.65A26.73,26.73,0,0,0,114.5,146c0,.1-.06.19-.13.19s-.25.24-.39.54-.88,1.55-1.64,2.79-1.51,2.48-1.66,2.75a2,2,0,0,1-.39.56.23.23,0,0,0-.12.21c0,.09-.85,1.57-1.89,3.28-3.66,6-6.24,10.29-6.63,11l-1.36,2.27a12.32,12.32,0,0,0-1,1.79c0,.19-.12.19,8.48.24l5,0,.63-1.16c.35-.65,1.17-2.13,1.82-3.3s1.19-2.17,1.19-2.21a3.38,3.38,0,0,1,.38-.65l.37-.58,4.75.07c2.61,0,6.15.07,7.86.08H133l.1.63c.09.56.27,2.47.55,6l.09,1.21h6.69c3.67,0,6.81,0,7,.07.34.06.36-.29.11-1.92-.36-2.39-.93-6.29-1.26-8.66-.15-1.06-.33-2.29-.4-2.75-.16-1.06-.59-4.06-.91-6.38-.14-1-.33-2.24-.42-2.79s-.27-1.82-.41-2.83c-.24-1.8-.62-4.45-.94-6.59-.21-1.39-.57-3.94-.88-6.16-.37-2.68-.75-5.31-.93-6.42-.09-.55-.25-1.72-.36-2.6l-.2-1.6-1.75-.11c-3.25-.2-10.64-.13-10.82.1m22.86.22c.1.27,1.43,4.75,1.86,6.24.12.41.6,2,1.08,3.5s1,3.11,1.09,3.54.35,1.19.5,1.67l.4,1.37c.08.28.23.8.33,1.17s.29,1,.42,1.33.35,1.12.5,1.67.41,1.41.57,1.92.42,1.33.56,1.83.58,1.88.94,3.07a11.73,11.73,0,0,1,.58,2.29,12.69,12.69,0,0,0-.33,1.35c-.14.66-.33,1.51-.42,1.87l-.24,1.09c0,.23-.24,1.05-.42,1.83-.41,1.73-1.1,4.73-1.41,6.08-.51,2.3-1.11,4.88-1.26,5.42-.36,1.39-1,1.24,6.27,1.29l6.5.05.29-1.3c.32-1.39.42-1.89.55-2.54,0-.23.15-.64.24-.92s.27-1.06.42-1.75.48-2.15.74-3.25.74-3.2,1.08-4.66.73-3.12.86-3.67a11,11,0,0,1,2.24-3.58c.05,0,.94-1.21,2-2.59s2.09-2.73,2.33-3,.59-.74.79-1,1.34-1.75,2.54-3.31,3.59-4.67,5.3-6.92,3.16-4.12,3.21-4.16.43-.54.84-1.09.92-1.18,1.12-1.41a1.82,1.82,0,0,0,.38-.53.83.83,0,0,1,.21-.34,19.84,19.84,0,0,0,1.92-2.56s-3.22-.08-7.09-.11l-7,0-.29.5a4.34,4.34,0,0,1-.53.74,6.72,6.72,0,0,0-.65.9,9.2,9.2,0,0,1-.58.85c-.13.16-2.67,3.73-3.14,4.43s-3,4.27-3.12,4.42-.66.91-1.29,1.83a39.38,39.38,0,0,1-2.59,3.54c0-.13-.82-3.5-1-4a10,10,0,0,1-.27-1.08c-.12-.66-1.66-7.1-1.91-8-.14-.53-.63-2.52-.9-3.71l-.11-.46h-7.1c-6.42,0-7.09,0-7,.26m83.55.34c-.05.17-.21.84-.36,1.48-.33,1.42-.92,4-1.59,6.79-.28,1.16-.55,2.4-.6,2.75s-.11.7-.13.8a45.91,45.91,0,0,0,6.1.21l6.13,0-.08.37c-.05.21-.24,1.05-.44,1.88s-.37,1.61-.4,1.75c-.19.91-.79,3.51-.93,4-.09.32-.24,1-.33,1.41l-.31,1.42c-.08.32-.26,1.11-.41,1.75-.24,1.06-.69,3-1.38,5.92-.14.59-.35,1.53-.48,2.08S239,158,238.76,159s-.48,2.05-.53,2.42a11.15,11.15,0,0,1-.32,1.33,8.62,8.62,0,0,0-.29,1.17c-.05.27-.16.8-.26,1.16L237,166.5c-.09.41-.4,1.71-.67,2.88s-.51,2.28-.51,2.46.15.33,6.4.33h6.39l.19-.88c.1-.48.3-1.36.44-2s.37-1.6.51-2.25.33-1.43.41-1.75.23-1,.33-1.41.25-1.14.34-1.5c.13-.58.81-3.48,1.32-5.67.21-.87,1.15-5,1.35-5.83.08-.37.33-1.46.56-2.42l.77-3.33c.19-.87.5-2.19.67-2.92l.66-2.83c.32-1.46.62-2.7.78-3.3.07-.27.5-.29,6.2-.29h6.13l.18-.62c.09-.34.33-1.38.53-2.29s.43-1.93.51-2.25c.17-.65,1.42-6.13,1.58-6.88.05-.27-.38-.29-7.15-.29-4,0-12.39,0-18.72-.11-11.24-.11-11.51-.1-11.59.21m42.81.1c-.22.67-.44,1.56-.77,3-.43,1.94-1.09,4.88-1.33,5.83-.31,1.28-1,4.17-1.08,4.75-.06.32-.18.81-.26,1.09s-.38,1.55-.66,2.83c-.6,2.66-1,4.24-1.16,5.08s-.39,1.61-.84,3.59c-.19.82-.53,2.32-.77,3.33s-.52,2.28-.64,2.83c-.43,1.9-1.11,4.84-1.26,5.42-.08.32-.3,1.3-.5,2.17-.76,3.42-1.19,5.27-1.33,5.83a11.68,11.68,0,0,0-.55,2.71c0,.07,2.91.12,6.38.12H279l.36-1.62c.2-.89.43-1.89.51-2.21s.31-1.3.52-2.17.46-2,.59-2.58.34-1.49.46-2.08.35-1.5.48-2,.3-1.2.36-1.55l.11-.62h4.31l.1.46c.06.25.16.64.23.87.22.69.47,1.6,1.26,4.67.41,1.6.83,3.18.92,3.5s.43,1.6.76,2.83a19.12,19.12,0,0,0,.78,2.46c.21.27,14.93.29,17.55,0l3.32-.34c1.95-.21,7.17-.93,8.25-1.14,2.36-.45,3.43-.69,5-1.08a52.07,52.07,0,0,0,5.84-1.88c1.35-.61,3.42-1.61,3.5-1.7a6.68,6.68,0,0,1,1-.57c.5-.25,1.4-.76,2-1.11s1.38-.82,1.75-1c.57-.31,3.69-2.33,4.16-2.69l1.83-1.32c2.91-2.09,7.42-5.93,7.42-6.32s-.24-.15-1,.56c-.43.39-.92.82-1.09,1-10,8-22,12.13-32.3,11.34-1.47-.11-2.94-.27-3.26-.35l-1.92-.42a37,37,0,0,1-9.1-3.44,4.21,4.21,0,0,0-.92-.47c-.51,0-1-.85-1.53-2.41-.82-2.67-1.2-4-1.2-4.1a6,6,0,0,1,1.12-.84,23.36,23.36,0,0,0,5.84-5.56c4.6-6.35,5.1-15.79,1.09-20.25l-.61-.69c-1.94-2.2-5.45-3.58-9.67-3.8-4.5-.24-20.27-.22-20.34,0m18.15,12.65c3.61,2.37,1.25,8.57-3.6,9.49-1.6.3-7,.21-6.91-.12a9.57,9.57,0,0,0,.27-1c.24-1.07,1-4.31,1.17-5,.08-.32.31-1.34.51-2.25l.36-1.67,3.77.08c3.72.09,3.77.09,4.43.52m-164,9c.16,1.52.36,3.43.45,4.25s.2,1.93.26,2.46l.1,1H127.6c-2.63,0-4.75-.06-4.71-.12l.81-1.46c.41-.74,1-1.71,1.22-2.17,1.4-2.5,1.82-3.24,2.25-4,.25-.46,1-1.77,1.65-2.92s1.39-2.48,1.64-3l.46-.89.18,2.05c.11,1.14.32,3.3.47,4.81m-21.3,35.78c-.16.53-.43,1.39-.6,1.89s-.47,1.48-.67,2.17-.54,1.77-.75,2.41-.58,1.85-.84,2.67-.56,1.78-.68,2.13c-.42,1.16-.51,1.12,2.29,1.12a11.85,11.85,0,0,0,4.73-.62c5.36-1.7,8.36-7.88,5.36-11-1.21-1.28-2-1.51-5.79-1.63l-2.76-.08-.29,1m25.91-.63a12,12,0,0,0-.49,1.45c-.18.64-.56,1.87-.83,2.74s-.86,2.71-1.29,4.08-.87,2.8-1,3.17a6.41,6.41,0,0,0-.28,1.08l-.06.42h9.5l.05-.46,0-.46h-4.27c-4,0-4.28,0-4.16-.29.17-.44.33-.93,1-3.09l.6-2h7.81v-.84h-7.5l.1-.45c.06-.26.28-1,.49-1.63s.51-1.6.67-2.13l.29-1h4.29c4.53,0,4.88-.07,4.4-.87-.2-.32-9.21-.16-9.39.18m24.91.64c-.16.53-.46,1.49-.67,2.13s-.69,2.14-1.06,3.33c-1.48,4.74-2,6.56-2,6.74,0,.39,8.63.24,8.84-.16.33-.62.08-.66-3.83-.66h-3.8l.13-.6a8.82,8.82,0,0,1,.3-1c.09-.24.41-1.23.69-2.19s.59-1.94.67-2.17.38-1.2.67-2.17.63-2,.74-2.33c.47-1.29.48-1.83,0-1.83s-.44.13-.69,1m29-.82c-.11.18-.8,2.28-1.27,3.87-.4,1.38-1.36,4.44-2.26,7.23-.59,1.83-.59,2.19,0,2.07.31-.05.37-.23,1.57-4.14.3-1,.64-2.05.76-2.41s.53-1.68.91-2.92.75-2.48.84-2.76c.28-.89-.16-1.61-.57-.94m19,0a9.1,9.1,0,0,0,.26,2.84c.09.5.31,2.06.5,3.46s.37,2.67.4,2.84.11.74.17,1.29c.36,3.21.68,3.43,2.08,1.41.23-.32.46-.62.51-.67s1.56-2,3.34-4.33,3.33-4.37,3.45-4.5a11,11,0,0,0,1.61-2.37c-.27-.42-.81,0-1.91,1.41-.66.85-1.37,1.77-1.59,2l-1.82,2.42c-.79,1.05-1.63,2.17-1.88,2.48a7.72,7.72,0,0,0-.6.83,1.48,1.48,0,0,1-.26.35c-.06,0-.5.6-1,1.24s-.87,1-.87.83-.08-.73-.15-1.23-.26-1.82-.41-2.92-.34-2.56-.44-3.25-.27-1.93-.38-2.75c-.19-1.49-.62-2.08-1-1.42m26.18,0c-.1.17-.68,1.93-1.82,5.6L232,190.5c-.37,1.15-.68,2.27-.71,2.5l0,.42h9.5l.05-.46,0-.46h-8.49l.13-.46c.07-.25.45-1.45.83-2.66l.71-2.21h7.8v-.84h-3.75a28.74,28.74,0,0,1-3.75-.12c0-.07.18-.69.4-1.38s.56-1.79.77-2.45l.38-1.21h4.31a36.43,36.43,0,0,0,4.31-.13,3.83,3.83,0,0,1,.1-.5l.11-.37H240a37.66,37.66,0,0,0-4.77.15m24.11.22a13.52,13.52,0,0,0-.46,1.38c-.15.55-.45,1.52-.66,2.16s-.55,1.73-.75,2.42-.42,1.44-.5,1.67-.38,1.2-.67,2.16-.59,1.93-.68,2.14c-.27.68-.19,1.06.22,1s.44-.15,1.55-3.68l.62-2h4.4l.3.71c.5,1.14,1.75,3.83,2.06,4.42.21.41.38.54.74.54.59,0,.58-.1-.18-1.73l-1.23-2.6c-.63-1.33-.61-1.41.3-1.55,3.48-.55,5.77-4.94,3.43-6.6-1.28-.91-8.09-1.29-8.49-.48m24.13-.12a2.76,2.76,0,0,0,.24.81c.13.28.58,1.34,1,2.35s.9,2.14,1.07,2.5c.81,1.77.85,1.92.69,2.29-.08.21-.39,1.17-.67,2.13s-.6,1.95-.69,2.2c-.2.52-.08.8.35.8s.42-.17,1.18-2.67c.29-1,.61-2,.71-2.25.18-.51,1.38-1.74,5.59-5.74,2.39-2.28,2.68-2.67,2-2.67-.29,0-1.3.88-3.87,3.41-1.91,1.88-3.55,3.41-3.64,3.42s-.59-.76-.59-1.05a2.89,2.89,0,0,0-.23-.68c-.73-1.61-1.1-2.46-1.1-2.53a18.8,18.8,0,0,0-.88-2.07c-.26-.51-1.12-.69-1.12-.25m-166.41,1.17c3.76,1.78,2.53,7.39-2.17,9.92-1.44.78-2.56,1-5.19,1h-2l.14-.46c.08-.25.26-.87.41-1.37s.53-1.71.84-2.67.69-2.2.85-2.75.32-1.11.37-1.25a3.9,3.9,0,0,0,.13-.43c0-.11.21-.69.42-1.3l.37-1.1h2.49c2.32,0,2.55,0,3.39.42m149.55-.16c2,1,1.38,3.65-1.22,5-1.75.93-7.8.73-6.95-.23a5.56,5.56,0,0,0,.43-1.16c.16-.55.36-1.18.44-1.41s.27-.89.42-1.46l.28-1h3c2.42,0,3.14.05,3.56.26"/><path id="path1" class="cls-1" d="M203.32,14a2.34,2.34,0,0,1-.77.38c-.12,0-.22.07-.22.15s-.13.19-.29.24a14.69,14.69,0,0,0-1.37.71l-1.75.95c-.37.19-.86.47-1.09.62s-1.06.63-1.85,1.05l-2,1.08c-.31.18-1,.58-1.65.9-1.37.74-3.73,2.06-5,2.77-.53.29-1.14.63-1.37.74a2.74,2.74,0,0,0-.5.29,11.77,11.77,0,0,1-1.17.64,13.58,13.58,0,0,0-2.27,1.3,3.29,3.29,0,0,1-.75.4,3.19,3.19,0,0,0-.64.32,2.19,2.19,0,0,1-.42.27L175,29.63l-4.75,2.62c-6.4,3.57-9.49,5.29-10.21,5.68a2.83,2.83,0,0,0-.87.6c0,.2,0,.19,1.44-.47s2-.9,3.47-1.57c.46-.2,1.38-.61,2-.92s1.67-.76,2.25-1a10.81,10.81,0,0,0,1.21-.57c.1-.07,1.41-.67,2.92-1.33s3.35-1.48,4.08-1.83,2-.91,2.75-1.25l2.25-1c1-.47,2.18-1,4-1.81,1.58-.69,3.55-1.6,5.19-2.38.65-.31,1.23-.57,1.28-.57s1.28-.53,3.37-1.5c3-1.39,3.62-1.66,3.69-1.66s.73-.31,1.52-.68c3.34-1.58,3.8-1.73,4.41-1.44,2.55,1.19,4.44,2.09,5.71,2.7l10.42,5,6.91,3.29,3,1.43,7,3.32L241.75,36l4,1.9a8.65,8.65,0,0,0,2.08.84c.06-.07,0-.15-.09-.19a14.49,14.49,0,0,1-1.33-.81,13.59,13.59,0,0,0-1.25-.74,12.1,12.1,0,0,1-1.42-.81,15.08,15.08,0,0,0-1.68-.93c-.2-.06-.37-.19-.37-.27a.16.16,0,0,0-.15-.16c-.15,0-4-2.18-5.31-3a5.89,5.89,0,0,0-.77-.45c-.07,0-2.27-1.26-4.58-2.64-1-.56-1.75-1-1.79-1s-.85-.49-1.83-1.09-1.79-1.08-1.83-1.08-.75-.41-1.58-.92-1.87-1.1-2.3-1.33-1.08-.6-1.45-.83-.78-.47-.91-.53-.71-.4-1.27-.75a6,6,0,0,0-1.21-.64.18.18,0,0,1-.19-.16c0-.08-.15-.2-.34-.26a11.63,11.63,0,0,1-1.41-.76,6.39,6.39,0,0,0-1.25-.65.18.18,0,0,1-.17-.17.18.18,0,0,0-.18-.17,9,9,0,0,1-1.44-.76l-1.79-1.07c-1.47-.82-3.35-1.92-3.42-2a2.72,2.72,0,0,0-3.18-.55M91.21,122.78a1.42,1.42,0,0,0,.58,0c.16,0,0-.07-.29-.07s-.45,0-.29.07M139,123a1.42,1.42,0,0,0,.58,0c.17,0,0-.08-.29-.08s-.45,0-.29.08m155.58.67a2.42,2.42,0,0,0,.76,0c.2,0,0-.08-.38-.08s-.58,0-.38.08m44.72,5c0,1.89.07,2,.85,2s.74,0,.54-2.21l-.11-1.13h-1.29v1.29m7.39-.16a21.3,21.3,0,0,0-.79,2.7,2.73,2.73,0,0,0,1.18.61,16,16,0,0,0,.53-1.62l.47-1.55-.6-.3-.6-.3-.19.46m-14.85,0c-.33.13-.25.55.29,1.64a6.13,6.13,0,0,1,.49,1.2c0,.33.25.38.91.2s.71-.56.25-1a.64.64,0,0,1-.15-.4c0-1.05-1-1.92-1.79-1.59m20.5,3.68c-.37.44-.84,1-1,1.17-.43.44-.43.52,0,1s.63.45,1.72-.78,1.09-1.23.54-1.78-.41-.54-1.21.38m-27.56.51c-.52.56-.48.67.69,1.6,1.34,1.08,1.29,1.06,1.91.53l.47-.4-.4-.34c-2.07-1.76-2.24-1.85-2.67-1.39m30.95,4.47a7.16,7.16,0,0,1-1.1.57c-.26,0-.3.44-.08,1s.18.59,1.66-.13a3.54,3.54,0,0,0,.89-.53.32.32,0,0,1,.29-.14c.28,0,.31-.55.06-1s-.58-.39-1.72.28m-35.74.75c-.51.63-.45.7,1.55,1.93.68.42.78.42,1.18,0,.58-.54.53-.66-.64-1.4-1.77-1.13-1.65-1.1-2.09-.57m37.35,5-1.21.18v1.43l.79-.09,1.61-.21.82-.11v-.66c0-.79-.07-.81-2-.54m-40.88,1.89a3,3,0,0,1-.1.65c-.08.31,0,.36,1.09.54,1.75.3,2.12.28,2.24-.17.25-.95.15-1-2.19-1.23-.94-.09-1-.07-1,.21m39.27,4.12c-.06.23-.15.52-.2.66s1,.57,2.5.65c.8.05.82,0,1-.51s.17-.71-.91-.88c-2.29-.37-2.25-.37-2.36.08m-38.69,3.79a7.73,7.73,0,0,1-1.2.13l-.71,0v1.55l.87-.11c2.48-.31,2.29-.23,2.29-1s-.14-.82-1.25-.58m36.25,1.07c-.12.23-.29.42-.37.42-.28,0,.09.37.6.6a9.55,9.55,0,0,1,1.67,1l.49.32.39-.49c.48-.61.49-.77,0-1l-1.33-.71c-1.16-.63-1.18-.63-1.46-.11m-227.54,10a2.12,2.12,0,0,0,.67,0c.16,0,0-.07-.38-.07s-.49,0-.29.08m-22.5,7.83a2.36,2.36,0,0,0,.75,0c.21,0,0-.08-.37-.08s-.59,0-.38.08m2.84,0a1.83,1.83,0,0,0,.66,0c.16-.05,0-.08-.37-.08s-.5,0-.29.08M85.48,186.79a7.92,7.92,0,0,0-.26.92l-.1.46H91.9c3.72,0,6.77,0,6.77,0s.15-.43.33-.91l.33-.88H85.66l-.18.46m214.59-.17-.25.68c-.37.92-.71.87,6.61.83l6.77,0,.32-.83c.17-.46.31-.85.31-.87,0-.26-13.69,0-13.76.24"/></g></svg>