<svg width="32" height="32" viewBox="0 0 64 64" fill="none" xmlns="http://www.w3.org/2000/svg">
<mask id="mask0_5159_58486" style="mask-type:alpha" maskUnits="userSpaceOnUse" x="0" y="0" width="64" height="64">
<rect width="64" height="64" rx="32" fill="#DB7F7F"/>
</mask>
<g mask="url(#mask0_5159_58486)">
<rect x="1.99951" y="2" width="60" height="60" rx="30" fill="#FFFBF3"/>
<path fill-rule="evenodd" clip-rule="evenodd" d="M44.75 46C43.5074 46 42.5241 44.9814 42.2598 43.7672C42.1273 43.1581 41.9404 42.5605 41.7007 41.9818C41.1731 40.7079 40.3996 39.5504 39.4246 38.5754C38.4496 37.6004 37.2921 36.8269 36.0182 36.2993C34.7443 35.7716 33.3789 35.5 32 35.5C30.6211 35.5 29.2557 35.7716 27.9818 36.2993C26.7079 36.8269 25.5504 37.6004 24.5754 38.5754C23.6004 39.5504 22.8269 40.7079 22.2993 41.9818C22.0596 42.5605 21.8727 43.1581 21.7402 43.7672C21.4759 44.9814 20.4926 46 19.25 46V46C18.0074 46 16.9827 44.9871 17.1684 43.7584C17.2581 43.1654 17.3832 42.5782 17.5432 42C17.7066 41.4094 17.9063 40.8282 18.1418 40.2597C18.8956 38.4399 20.0005 36.7863 21.3934 35.3934C22.7863 34.0005 24.4399 32.8956 26.2597 32.1418C28.0796 31.388 30.0302 31 32 31C33.9698 31 35.9204 31.388 37.7403 32.1418C39.5601 32.8956 41.2137 34.0005 42.6066 35.3934C43.9995 36.7863 45.1044 38.4399 45.8582 40.2597C46.0937 40.8282 46.2934 41.4094 46.4568 42C46.6168 42.5782 46.7419 43.1654 46.8316 43.7584C47.0173 44.9871 45.9926 46 44.75 46V46Z" fill="#FFD04C"/>
<path fill-rule="evenodd" clip-rule="evenodd" d="M32 25C33.6569 25 35 23.6569 35 22C35 20.3431 33.6569 19 32 19C30.3431 19 29 20.3431 29 22C29 23.6569 30.3431 25 32 25ZM32 29C35.866 29 39 25.866 39 22C39 18.134 35.866 15 32 15C28.134 15 25 18.134 25 22C25 25.866 28.134 29 32 29Z" fill="#FFD04C"/>
</g>
<rect x="1" y="1" width="62" height="62" rx="31" stroke="white" stroke-width="2" stroke-linejoin="round"/>
</svg>
